Coordinates
version=1
nRows=21
nColumns=12
inDegrees=yes

Units are S.I. units (second, meters, Newtons, ...)
Angles are in degrees

endheader
time	SC_y	SC_z	SC_x	AC_y	AC_z	AC_x	GH_y	GH_z	GH_yy	EL_x	PS_y
       0.0              -12.05           22.3          43.83          60.09          5.858         -16.52         -152.9         -18.57          11.91          103.5          36.54
   0.03476              -12.05           22.3          43.83          60.09          5.857         -16.52         -152.8         -18.56          11.93          103.5          36.55
   0.06951              -12.06           22.3          43.83          60.09          5.855         -16.52         -152.8         -18.55          11.96          103.5          36.56
    0.1043              -12.06          22.29          43.84           60.1          5.853         -16.51         -152.7         -18.54          11.98          103.5          36.57
     0.139              -12.07          22.29          43.84           60.1          5.851         -16.51         -152.7         -18.53          12.01          103.5          36.58
    0.1738              -12.07          22.29          43.84           60.1          5.848         -16.51         -152.6         -18.52          12.04          103.5          36.59
    0.2085              -12.08          22.29          43.84           60.1          5.846         -16.51         -152.5          -18.5          12.07          103.5           36.6
    0.2433              -12.09          22.28          43.84           60.1          5.843         -16.51         -152.5         -18.49           12.1          103.5          36.61
     0.278              -12.09          22.28          43.85           60.1          5.841          -16.5         -152.4         -18.47          12.14          103.5          36.62
    0.3128               -12.1          22.28          43.85          60.11          5.838          -16.5         -152.3         -18.46          12.18          103.5          36.63
    0.3476              -12.11          22.27          43.85          60.11          5.835          -16.5         -152.3         -18.44          12.22          103.5          36.65
    0.3823              -12.12          22.27          43.85          60.11          5.831          -16.5         -152.2         -18.42          12.26          103.5          36.66
    0.4171              -12.13          22.26          43.86          60.11          5.828         -16.49         -152.1          -18.4          12.31          103.5          36.68
    0.4518              -12.14          22.26          43.86          60.12          5.824         -16.49         -152.0         -18.38          12.36          103.5          36.69
    0.4866              -12.15          22.25          43.87          60.12          5.819         -16.48         -151.9         -18.36          12.42          103.5          36.71
    0.5213              -12.16          22.25          43.87          60.12          5.815         -16.48         -151.8         -18.33          12.48          103.5          36.73
    0.5561              -12.18          22.24          43.87          60.12           5.81         -16.48         -151.6          -18.3          12.54          103.5          36.76
    0.5908              -12.19          22.24          43.88          60.13          5.804         -16.47         -151.5         -18.27          12.62          103.5          36.78
    0.6256              -12.21          22.23          43.88          60.13          5.798         -16.47         -151.3         -18.24          12.69          103.5          36.81
    0.6603              -12.23          22.22          43.89          60.14          5.792         -16.46         -151.2          -18.2          12.78          103.5          36.84
    0.6951              -12.24          22.21           43.9          60.14          5.784         -16.45         -151.0         -18.17          12.87          103.5          36.87
